HIERARCHY
ROOT root
{
	OFFSET	0	13.1	24.9
	CHANNELS 6  Xposition Yposition Zposition Xrotation Yrotation Zrotation
	JOINT spine_1
	{
		OFFSET	0	9.99999	0
		CHANNELS 3  Xrotation Yrotation Zrotation
		JOINT spine_2
		{
			OFFSET	0	112	-10
			CHANNELS 3  Xrotation Yrotation Zrotation
			JOINT spine_3
			{
				OFFSET	0	206.5	19.3
				CHANNELS 3  Xrotation Yrotation Zrotation
				JOINT spine_4
				{
					OFFSET	0	110.4	14.6
					CHANNELS 3  Xrotation Yrotation Zrotation
					JOINT neck_1
					{
						OFFSET	0	71.8	-50.3
						CHANNELS 3  Xrotation Yrotation Zrotation
						JOINT neck_2
						{
							OFFSET	0	86.2	-25.8
							CHANNELS 3  Xrotation Yrotation Zrotation
							JOINT head_ee
							{
								OFFSET	0	179.8	-8.7
								CHANNELS 3  Xrotation Yrotation Zrotation
								End Site
								{
									OFFSET	1	0	0
								}
							}
						}
					}
					JOINT left_clavicle
					{
						OFFSET	-43.2	22.4	-70.8
						CHANNELS 3  Xrotation Yrotation Zrotation
						JOINT left_shoulder
						{
							OFFSET	-93.9	-5.79999	48.7
							CHANNELS 3  Xrotation Yrotation Zrotation
							JOINT left_elbow
							{
								OFFSET	-291.4	-30.8	15.2
								CHANNELS 3  Xrotation Yrotation Zrotation
								JOINT left_lowarm_twist
								{
									OFFSET	-110.7	-3.89999	13.6
									CHANNELS 3  Xrotation Yrotation Zrotation
									JOINT left_hand
									{
										OFFSET	-110.7	-3.89999	13.6
										CHANNELS 3  Xrotation Yrotation Zrotation
										JOINT left_ee
										{
											OFFSET	-80.8	-5.10001	12.1
											CHANNELS 3  Xrotation Yrotation Zrotation
											End Site
											{
												OFFSET	1	0	0
											}
										}
									}
								}
							}
						}
					}
					JOINT right_clavicle
					{
						OFFSET	43.2	22.4	-70.8
						CHANNELS 3  Xrotation Yrotation Zrotation
						JOINT right_shoulder
						{
							OFFSET	93.9	-5.79999	48.7
							CHANNELS 3  Xrotation Yrotation Zrotation
							JOINT right_elbow
							{
								OFFSET	291.4	-30.8	15.2
								CHANNELS 3  Xrotation Yrotation Zrotation
								JOINT right_lowarm_twist
								{
									OFFSET	110.7	-3.89999	13.6
									CHANNELS 3  Xrotation Yrotation Zrotation
									JOINT right_hand
									{
										OFFSET	110.7	-3.89999	13.6
										CHANNELS 3  Xrotation Yrotation Zrotation
										JOINT right_ee
										{
											OFFSET	80.8	-5.10001	12.1
											CHANNELS 3  Xrotation Yrotation Zrotation
											End Site
											{
												OFFSET	1	0	0
											}
										}
									}
								}
							}
						}
					}
				}
			}
		}
	}
	JOINT left_hip
	{
		OFFSET	-82.8	-127.5	0.300001
		CHANNELS 3  Xrotation Yrotation Zrotation
		JOINT left_knee
		{
			OFFSET	-28.2	-396.7	2.2
			CHANNELS 3  Xrotation Yrotation Zrotation
			JOINT left_ankle
			{
				OFFSET	-11.7	-411.3	35.4
				CHANNELS 3  Xrotation Yrotation Zrotation
				JOINT left_toes
				{
					OFFSET	0	-60	-88.6
					CHANNELS 3  Xrotation Yrotation Zrotation
					JOINT left_foot_ee
					{
						OFFSET	-22.5	-16.5	-42.2
						CHANNELS 3  Xrotation Yrotation Zrotation
						End Site
						{
							OFFSET	1	0	0
						}
					}
				}
			}
		}
	}
	JOINT right_hip
	{
		OFFSET	82.8	-127.5	0.300001
		CHANNELS 3  Xrotation Yrotation Zrotation
		JOINT right_knee
		{
			OFFSET	28.2	-396.7	2.2
			CHANNELS 3  Xrotation Yrotation Zrotation
			JOINT right_ankle
			{
				OFFSET	11.7	-411.3	35.4
				CHANNELS 3  Xrotation Yrotation Zrotation
				JOINT right_toes
				{
					OFFSET	0	-60	-88.6
					CHANNELS 3  Xrotation Yrotation Zrotation
					JOINT right_foot_ee
					{
						OFFSET	22.5	-16.5	-42.2
						CHANNELS 3  Xrotation Yrotation Zrotation
						End Site
						{
							OFFSET	1	0	0
						}
					}
				}
			}
		}
	}
}
MOTION
Frames: 13
Frame Time: 0.02
1933.73 636.68 -1522.56 -27.3751 87.2202 30.8394 0.0345863 0.0963411 0.420113 0.0346817 0.0694133 0.425392 0.0352537 -0.0212793 0.430492 0.0349985 0.0469753 0.42845 -7.16483 8.91883 6.35784 -7.06876 12.0143 8.15437 -0.0 0.0 -0.0 1.33695 23.6056 4.55477 -17.2785 2.78552 73.7821 0.468388 -13.0631 0.0536278 -23.5532 -1.39493 2.64765 -0.392353 11.8783 2.41076 -0.0 0.0 -0.0 11.075 6.73684 -22.1797 15.9803 4.9841 -66.5345 1.33285 33.4333 -0.400312 -25.9143 1.59234 -2.87693 6.40504 -0.191397 -48.6802 0.0 0.0 0.0 28.9432 5.67914 -13.3228 -3.5446 0.129627 0.528454 -4.00495 -24.5573 0.705886 -13.6141 0.0 0.0 -0.0 0.0 -0.0 -18.7834 1.8049 -3.61103 -12.3059 -0.307963 -1.8598 40.2004 -9.84769 4.8929 -7.06719 0.0 0.0 0.0 0.0 0.0 
1902.42 637.955 -1516.08 -25.4843 86.6208 28.9865 0.150622 0.316563 0.573304 0.150761 0.279441 0.592285 0.153791 0.150438 0.637381 0.15331 0.249211 0.605625 -2.89915 10.0564 6.07839 -2.75417 13.5332 7.74873 -0.0 0.0 -0.0 2.03834 24.7231 5.56852 -18.1217 2.19363 71.9808 0.560845 -15.5268 0.076462 -24.0588 -1.4364 2.69742 -0.932785 13.1818 -0.440234 -0.0 0.0 -0.0 11.0683 5.4022 -22.134 13.3492 3.41713 -66.9019 1.32751 33.3276 -0.397374 -22.8967 1.34174 -2.58247 6.62808 1.12958 -50.266 0.0 0.0 0.0 27.3747 6.40168 -13.531 -3.25658 0.120319 0.485232 -3.6989 -25.4536 0.658274 -13.0564 0.0 0.0 -0.0 0.0 -0.0 -18.968 2.41179 -2.90636 -16.1732 -0.321576 -2.45288 36.2938 -11.1856 4.54516 -4.14739 0.0 0.0 0.0 0.0 0.0 
1863.42 650.73 -1506.4 -24.1316 87.7749 27.8567 0.160719 0.430948 0.350021 0.160695 0.407802 0.376734 0.163444 0.320817 0.453108 0.163368 0.38835 0.396755 -4.64565 8.99328 4.05587 -4.57268 13.4467 5.64751 -0.0 0.0 -0.0 2.28363 24.8601 5.90218 -17.2451 0.187156 71.101 0.563698 -15.602 0.0772276 -25.4773 -1.55508 2.8351 -0.741774 14.5306 1.33451 -0.0 0.0 -0.0 11.0755 1.01549 -21.9597 9.64921 0.71758 -66.21 1.26088 31.9877 -0.36142 -21.3303 1.2179 -2.42459 6.92415 4.1252 -51.5769 0.0 0.0 0.0 24.0514 7.46313 -12.2984 -4.2632 0.151902 0.636488 2.09505 -22.8151 -0.356332 -11.6311 0.0 0.0 -0.0 0.0 -0.0 -17.6091 2.06346 -2.90013 -22.378 -0.259816 -3.40246 31.9968 -17.888 4.18825 -2.36994 0.0 0.0 0.0 0.0 0.0 
1830.42 659.195 -1500.32 -13.114 88.0993 16.7401 0.141459 0.328231 0.279974 0.141449 0.30975 0.300292 0.143116 0.240617 0.358084 0.143058 0.29415 0.315589 -7.27628 8.89877 4.76693 -7.2292 13.1424 6.58292 -0.0 0.0 -0.0 2.54478 23.9796 6.22201 -15.7063 -0.77139 69.9354 0.58787 -16.2364 0.0838578 -25.5927 -1.56489 2.84618 -0.538147 15.6042 3.04764 -0.0 0.0 -0.0 11.191 -2.08127 -21.9837 6.80926 -0.595416 -65.9321 1.25591 31.8861 -0.35879 -19.5465 1.0822 -2.24078 7.51734 6.26701 -56.7924 0.0 0.0 0.0 22.0406 8.32425 -11.8276 -6.93071 0.222691 1.0397 4.18444 -21.8073 -0.699606 -11.1631 0.0 0.0 -0.0 0.0 -0.0 -16.5039 1.17148 -2.14243 -25.0094 -0.202646 -3.8022 26.5507 -23.2604 3.66318 -1.09646 0.0 0.0 0.0 0.0 0.0 
1808.05 661.786 -1496.17 40.2706 88.4296 -36.5681 0.209567 0.260005 0.24376 0.209567 0.243967 0.259811 0.210704 0.185036 0.304603 0.210649 0.23082 0.271558 -8.31775 9.55351 5.53698 -8.26961 13.9844 7.58541 -0.0 0.0 -0.0 1.75449 22.9902 5.09017 -10.5296 -2.91195 71.1327 0.49711 -13.8342 0.0603079 -26.2854 -1.62422 2.91223 -0.384673 16.0058 4.15943 -0.0 0.0 -0.0 11.2253 -3.60643 -21.9202 4.61801 -2.02136 -66.0766 1.17077 30.1111 -0.314932 -18.0155 0.970368 -2.07975 7.4556 7.30315 -55.2196 0.0 0.0 0.0 19.7415 9.42762 -11.5409 -7.27397 0.230434 1.09181 7.45664 -22.3319 -1.23875 -12.1868 0.0 0.0 -0.0 0.0 -0.0 -14.8078 0.289422 -1.70456 -30.6081 -0.0202964 -4.64173 22.5537 -26.9438 3.23768 -1.14122 0.0 0.0 0.0 0.0 0.0 
1785.45 664.423 -1492.55 30.9449 88.0167 -26.9752 0.2394 0.166965 0.132262 0.239396 0.158211 0.142618 0.239799 0.125424 0.172161 0.23979 0.151039 0.150192 -10.128 10.3476 5.97796 -10.1139 15.4812 8.40994 -0.0 0.0 -0.0 1.59827 22.2874 4.82897 -3.3362 -4.51875 72.3945 0.434038 -12.1346 0.0461351 -26.7343 -1.6631 2.95465 -0.344696 18.6573 5.47425 -0.0 0.0 -0.0 11.0752 -5.44114 -21.4343 3.02668 -3.13188 -66.2525 1.08947 28.3546 -0.275226 -15.568 0.800677 -1.81636 7.61731 7.48756 -56.9885 0.0 0.0 0.0 18.6439 10.1412 -11.2465 -7.67286 0.239039 1.15242 9.87261 -18.4082 -1.56581 -12.9811 0.0 0.0 -0.0 0.0 -0.0 -12.4829 -0.0759054 -2.2348 -36.2437 0.245248 -5.46526 23.7617 -27.9097 3.41455 -0.147371 0.0 0.0 0.0 0.0 0.0 
1761.68 675.47 -1489.03 52.4405 87.6939 -48.5561 0.238545 -0.00566914 0.115814 0.238552 -0.0130272 0.115219 0.238529 -0.0364946 0.11006 0.238512 -0.0186547 0.114442 -11.9028 10.661 6.50548 -11.9208 16.0341 9.23112 -0.0 0.0 -0.0 1.03884 22.6014 4.06803 1.68023 -6.1452 73.6639 0.416954 -11.6704 0.0426114 -27.1941 -1.70326 2.99779 -0.28596 19.9991 6.35936 -0.0 0.0 -0.0 11.128 -6.57243 -21.4174 0.164503 -4.35341 -66.5516 1.03097 27.0533 -0.248027 -15.2795 0.781423 -1.78485 7.69158 6.58248 -58.6941 0.0 0.0 0.0 16.1528 10.9732 -10.7512 -8.43805 0.254364 1.26884 11.702 -17.2453 -1.82416 -13.1076 0.0 0.0 -0.0 0.0 -0.0 -7.10116 -1.98536 -2.71754 -46.0053 0.892323 -6.81762 22.2435 -28.0414 3.22041 -0.0892848 0.0 0.0 0.0 0.0 0.0 
1743.61 673.303 -1487.4 33.5396 87.2766 -29.3122 0.434844 -0.0369169 -0.0804139 0.434847 -0.0317252 -0.0826 0.434895 -0.0143192 -0.0873167 0.434885 -0.0279295 -0.0839595 -13.0525 10.097 5.89232 -13.1118 15.5378 8.64246 -0.0 0.0 -0.0 -0.00871303 22.7715 2.62671 6.3678 -10.0275 76.1592 0.415043 -11.6183 0.0422258 -27.4825 -1.72862 3.02468 0.452253 18.1595 10.1376 -0.0 0.0 -0.0 10.8635 -8.65299 -20.6555 -0.683737 -4.83807 -66.4801 0.93314 24.8084 -0.20524 -21.1681 1.20532 -2.40805 7.78664 3.06922 -63.1419 0.0 0.0 0.0 14.7138 11.4082 -11.5724 -7.74053 0.240457 1.1627 13.8095 -20.0684 -2.18537 -13.614 0.0 0.0 -0.0 0.0 -0.0 -3.65707 -3.56358 -1.46567 -51.4228 1.34833 -7.51566 19.1346 -28.2095 2.80903 -2.58552 0.0 0.0 0.0 0.0 0.0 
1729.04 673.138 -1485.45 41.104 86.7642 -36.715 0.430113 -0.130955 -0.0946276 0.430109 -0.124668 -0.102769 0.430338 -0.101233 -0.125919 0.430336 -0.119849 -0.108351 -13.0339 10.7137 5.96314 -13.1146 16.6678 8.89702 -0.0 0.0 -0.0 -0.177618 20.6641 2.14872 8.92864 -9.03997 76.9444 0.416281 -11.652 0.0424754 -26.9152 -1.67885 2.97166 0.356571 18.5979 9.71098 -0.0 0.0 -0.0 10.9069 -8.3693 -20.7737 -2.775 -7.39822 -66.1714 0.92319 24.5753 -0.201083 -18.851 1.03087 -2.168 7.92241 1.15225 -67.1655 0.0 0.0 0.0 13.2355 11.8758 -11.6808 -8.08857 0.247558 1.21564 16.1472 -21.5191 -2.56161 -13.723 0.0 0.0 -0.0 0.0 -0.0 0.348809 -3.82337 -1.0231 -56.1031 1.79421 -8.08231 13.2848 -28.6378 1.998 -2.14806 0.0 0.0 0.0 0.0 0.0 
1707.98 683.407 -1473.53 38.2213 86.3595 -33.9944 0.374436 -0.293674 -0.168579 0.374407 -0.282352 -0.186925 0.375343 -0.238341 -0.240535 0.375367 -0.273338 -0.199875 -13.2048 10.1942 5.75135 -13.279 15.8349 8.56126 -0.0 0.0 -0.0 -0.16447 19.9695 2.08709 11.7087 -9.29221 77.3186 0.467229 -13.0319 0.0533662 -25.9516 -1.59553 2.88049 0.749641 18.1615 11.9736 -0.0 0.0 -0.0 10.4933 -8.7677 -19.9298 -4.70684 -6.30674 -65.2733 0.89177 23.8335 -0.188201 -19.6744 1.09174 -2.2541 7.70222 -0.698724 -65.209 0.0 0.0 0.0 10.1194 14.2525 -10.2942 -5.5448 0.188257 0.829809 15.6954 -21.529 -2.49572 -13.4477 0.0 0.0 -0.0 0.0 -0.0 7.51336 -2.36385 -0.866459 -62.1102 2.4321 -8.75373 13.0141 -28.5892 1.95843 -4.42299 0.0 0.0 0.0 0.0 0.0 
1695.65 687.67 -1466.28 20.3814 84.966 -16.1755 0.507255 -0.284568 -0.230759 0.507244 -0.269308 -0.248399 0.508439 -0.213737 -0.297566 0.508408 -0.258049 -0.260076 -13.4512 9.72949 5.24004 -13.5363 15.3009 7.96903 -0.0 0.0 -0.0 0.0449168 19.0742 2.29521 14.4841 -9.86989 77.1238 0.599416 -16.538 0.087115 -25.224 -1.53364 2.81074 1.00186 16.0475 12.8134 -0.0 0.0 -0.0 10.2864 -9.20977 -19.4855 -5.94195 -6.66004 -65.0833 0.879963 23.5525 -0.183457 -22.1812 1.28463 -2.51077 7.66218 -2.71288 -66.2723 0.0 0.0 0.0 8.37049 17.0312 -9.66419 -2.96295 0.110605 0.441215 17.3748 -24.2376 -2.81588 -13.1524 0.0 0.0 -0.0 0.0 -0.0 12.3652 -1.40238 -0.796375 -65.6581 2.84092 -9.11798 12.5361 -27.5632 1.87699 -6.56557 0.0 0.0 0.0 0.0 0.0 
1675.74 687.034 -1461.3 16.5365 84.6839 -12.3344 0.541994 -0.334495 -0.230237 0.541967 -0.319166 -0.251055 0.543393 -0.262228 -0.310052 0.543391 -0.307904 -0.264747 -11.6069 9.74117 5.44346 -11.6359 14.9247 7.92105 -0.0 0.0 -0.0 0.214386 17.7017 2.40129 14.222 -10.1064 75.873 0.800868 -21.6394 0.153062 -25.2646 -1.53707 2.81465 1.23784 14.0618 13.6269 -0.0 0.0 -0.0 10.0266 -10.3146 -18.8727 -7.37532 -7.14033 -64.8587 0.824485 22.2162 -0.161881 -25.9119 1.59213 -2.8767 7.49549 -5.49334 -65.6277 0.0 0.0 0.0 5.6336 19.5845 -8.30345 1.28853 -0.055201 -0.190019 18.435 -27.0969 -3.06817 -12.9212 0.0 0.0 -0.0 0.0 -0.0 16.3544 0.0658443 -1.27588 -69.7784 3.34305 -9.50855 12.4499 -27.1254 1.85955 -9.62274 0.0 0.0 0.0 0.0 0.0 
1658.04 687.17 -1456.82 7.27364 83.7547 -3.25239 0.58058 -0.355237 -0.358959 0.580591 -0.331676 -0.380836 0.582854 -0.248717 -0.439528 0.582724 -0.31501 -0.394733 -10.9175 9.44695 5.4343 -10.9233 14.2674 7.74717 -0.0 0.0 -0.0 0.458095 17.4277 2.7465 14.9876 -10.3767 74.1206 1.01047 -26.59 0.238778 -25.2812 -1.53847 2.81624 1.39769 11.7775 13.8607 -0.0 0.0 -0.0 9.77501 -11.1385 -18.3147 -8.20246 -7.47622 -64.2331 0.785817 21.2694 -0.147557 -28.9762 1.86218 -3.16193 7.40418 -7.35474 -65.379 0.0 0.0 0.0 3.80452 21.3392 -7.32606 3.80184 -0.175127 -0.556939 19.1286 -29.0769 -3.24957 -12.7577 0.0 0.0 -0.0 0.0 -0.0 18.8082 1.57981 -1.77173 -72.639 3.70764 -9.75815 14.3239 -26.2239 2.11435 -11.7587 0.0 0.0 0.0 0.0 0.0 
